<svg xmlns="http://www.w3.org/2000/svg" xmlns:xlink="http://www.w3.org/1999/xlink" width="200" zoomAndPan="magnify" viewBox="0 0 150 112.499997" height="150" preserveAspectRatio="xMidYMid meet" version="1.0"><defs><g/></defs><g fill="#000000" fill-opacity="1"><g transform="translate(0.331861, 85.306663)"><g><path d="M 37.890625 0 L 27.3125 0 L 27.3125 -12.140625 L 1.90625 -12.140625 L 1.90625 -21.015625 L 23.765625 -55.78125 L 37.890625 -55.78125 L 37.890625 -21.015625 L 46.46875 -21.015625 L 46.46875 -12.140625 L 37.890625 -12.140625 Z M 13.203125 -21.828125 L 13.546875 -21.015625 L 27.3125 -21.015625 L 27.3125 -42.625 L 26.4375 -42.765625 Z M 13.203125 -21.828125 "/></g></g><g transform="translate(48.945515, 85.306663)"><g><path d="M 27.25 0.796875 C 22.6875 0.796875 18.71875 -0.210938 15.34375 -2.234375 C 11.976562 -4.253906 9.359375 -7.398438 7.484375 -11.671875 C 5.617188 -15.941406 4.6875 -21.347656 4.6875 -27.890625 C 4.6875 -34.429688 5.617188 -39.835938 7.484375 -44.109375 C 9.359375 -48.378906 11.976562 -51.523438 15.34375 -53.546875 C 18.71875 -55.566406 22.6875 -56.578125 27.25 -56.578125 C 31.820312 -56.578125 35.789062 -55.566406 39.15625 -53.546875 C 42.53125 -51.523438 45.148438 -48.378906 47.015625 -44.109375 C 48.890625 -39.835938 49.828125 -34.429688 49.828125 -27.890625 C 49.828125 -21.347656 48.890625 -15.941406 47.015625 -11.671875 C 45.148438 -7.398438 42.53125 -4.253906 39.15625 -2.234375 C 35.789062 -0.210938 31.820312 0.796875 27.25 0.796875 Z M 27.25 -8.546875 C 29.738281 -8.546875 31.820312 -9.148438 33.5 -10.359375 C 35.175781 -11.566406 36.46875 -13.59375 37.375 -16.4375 C 38.28125 -19.289062 38.734375 -23.109375 38.734375 -27.890625 C 38.734375 -32.671875 38.28125 -36.484375 37.375 -39.328125 C 36.46875 -42.179688 35.175781 -44.210938 33.5 -45.421875 C 31.820312 -46.628906 29.738281 -47.234375 27.25 -47.234375 C 24.75 -47.234375 22.660156 -46.628906 20.984375 -45.421875 C 19.304688 -44.210938 18.015625 -42.179688 17.109375 -39.328125 C 16.210938 -36.484375 15.765625 -32.671875 15.765625 -27.890625 C 15.765625 -23.109375 16.210938 -19.289062 17.109375 -16.4375 C 18.015625 -13.59375 19.304688 -11.566406 20.984375 -10.359375 C 22.660156 -9.148438 24.75 -8.546875 27.25 -8.546875 Z M 27.25 -8.546875 "/></g></g><g transform="translate(103.473705, 85.306663)"><g><path d="M 22.734375 0.796875 C 16.765625 0.796875 12.023438 -0.46875 8.515625 -3 C 5.003906 -5.53125 2.773438 -9.109375 1.828125 -13.734375 L 10.1875 -17.625 L 11.0625 -17.46875 C 12 -14.394531 13.335938 -12.148438 15.078125 -10.734375 C 16.828125 -9.328125 19.253906 -8.625 22.359375 -8.625 C 25.359375 -8.625 27.644531 -9.320312 29.21875 -10.71875 C 30.800781 -12.113281 31.59375 -14.148438 31.59375 -16.828125 C 31.59375 -19.441406 30.8125 -21.445312 29.25 -22.84375 C 27.6875 -24.25 25.390625 -24.953125 22.359375 -24.953125 L 13.96875 -24.953125 L 13.96875 -33.53125 L 21.296875 -33.53125 C 23.785156 -33.53125 25.765625 -34.15625 27.234375 -35.40625 C 28.710938 -36.65625 29.453125 -38.4375 29.453125 -40.75 C 29.453125 -43.039062 28.757812 -44.765625 27.375 -45.921875 C 25.988281 -47.078125 24.078125 -47.65625 21.640625 -47.65625 C 19.140625 -47.65625 16.929688 -47.066406 15.015625 -45.890625 C 13.097656 -44.722656 11.550781 -43.148438 10.375 -41.171875 L 9.5 -41.015625 L 3.703125 -47.765625 C 5.660156 -50.410156 8.175781 -52.539062 11.25 -54.15625 C 14.332031 -55.769531 18 -56.578125 22.25 -56.578125 C 28.09375 -56.578125 32.550781 -55.351562 35.625 -52.90625 C 38.707031 -50.46875 40.25 -47.039062 40.25 -42.625 C 40.25 -39.945312 39.625 -37.660156 38.375 -35.765625 C 37.132812 -33.867188 35.34375 -32.234375 33 -30.859375 L 33 -30.0625 C 39.4375 -27.800781 42.65625 -23.222656 42.65625 -16.328125 C 42.65625 -12.867188 41.914062 -9.851562 40.4375 -7.28125 C 38.96875 -4.71875 36.742188 -2.726562 33.765625 -1.3125 C 30.785156 0.09375 27.109375 0.796875 22.734375 0.796875 Z M 22.734375 0.796875 "/></g></g></g></svg>