<svg xmlns="http://www.w3.org/2000/svg" xmlns:xlink="http://www.w3.org/1999/xlink" width="200" zoomAndPan="magnify" viewBox="0 0 150 112.499997" height="150" preserveAspectRatio="xMidYMid meet" version="1.0"><defs><g/><clipPath id="e24ce9ed2c"><path d="M 0.332031 27 L 149 27 L 149 85 L 0.332031 85 Z M 0.332031 27 " clip-rule="nonzero"/></clipPath></defs><g clip-path="url(#e24ce9ed2c)"><g fill="#000000" fill-opacity="1"><g transform="translate(-0.919348, 84.195494)"><g><path d="M 37.890625 0 L 27.3125 0 L 27.3125 -12.140625 L 1.90625 -12.140625 L 1.90625 -21.015625 L 23.765625 -55.78125 L 37.890625 -55.78125 L 37.890625 -21.015625 L 46.46875 -21.015625 L 46.46875 -12.140625 L 37.890625 -12.140625 Z M 13.203125 -21.828125 L 13.546875 -21.015625 L 27.3125 -21.015625 L 27.3125 -42.625 L 26.4375 -42.765625 Z M 13.203125 -21.828125 "/></g></g><g transform="translate(47.694306, 84.195494)"><g><path d="M 27.25 0.796875 C 22.6875 0.796875 18.71875 -0.210938 15.34375 -2.234375 C 11.976562 -4.253906 9.359375 -7.398438 7.484375 -11.671875 C 5.617188 -15.941406 4.6875 -21.347656 4.6875 -27.890625 C 4.6875 -34.429688 5.617188 -39.835938 7.484375 -44.109375 C 9.359375 -48.378906 11.976562 -51.523438 15.34375 -53.546875 C 18.71875 -55.566406 22.6875 -56.578125 27.25 -56.578125 C 31.820312 -56.578125 35.789062 -55.566406 39.15625 -53.546875 C 42.53125 -51.523438 45.148438 -48.378906 47.015625 -44.109375 C 48.890625 -39.835938 49.828125 -34.429688 49.828125 -27.890625 C 49.828125 -21.347656 48.890625 -15.941406 47.015625 -11.671875 C 45.148438 -7.398438 42.53125 -4.253906 39.15625 -2.234375 C 35.789062 -0.210938 31.820312 0.796875 27.25 0.796875 Z M 27.25 -8.546875 C 29.738281 -8.546875 31.820312 -9.148438 33.5 -10.359375 C 35.175781 -11.566406 36.46875 -13.59375 37.375 -16.4375 C 38.28125 -19.289062 38.734375 -23.109375 38.734375 -27.890625 C 38.734375 -32.671875 38.28125 -36.484375 37.375 -39.328125 C 36.46875 -42.179688 35.175781 -44.210938 33.5 -45.421875 C 31.820312 -46.628906 29.738281 -47.234375 27.25 -47.234375 C 24.75 -47.234375 22.660156 -46.628906 20.984375 -45.421875 C 19.304688 -44.210938 18.015625 -42.179688 17.109375 -39.328125 C 16.210938 -36.484375 15.765625 -32.671875 15.765625 -27.890625 C 15.765625 -23.109375 16.210938 -19.289062 17.109375 -16.4375 C 18.015625 -13.59375 19.304688 -11.566406 20.984375 -10.359375 C 22.660156 -9.148438 24.75 -8.546875 27.25 -8.546875 Z M 27.25 -8.546875 "/></g></g><g transform="translate(102.222496, 84.195494)"><g><path d="M 37.890625 0 L 27.3125 0 L 27.3125 -12.140625 L 1.90625 -12.140625 L 1.90625 -21.015625 L 23.765625 -55.78125 L 37.890625 -55.78125 L 37.890625 -21.015625 L 46.46875 -21.015625 L 46.46875 -12.140625 L 37.890625 -12.140625 Z M 13.203125 -21.828125 L 13.546875 -21.015625 L 27.3125 -21.015625 L 27.3125 -42.625 L 26.4375 -42.765625 Z M 13.203125 -21.828125 "/></g></g></g></g></svg>